<?xml version="1.0" encoding="utf-8"?>
<!-- Generator: Adobe Illustrator 20.1.0, SVG Export Plug-In . SVG Version: 6.00 Build 0)  -->
<svg version="1.1" id="Calque_1" xmlns="http://www.w3.org/2000/svg" xmlns:xlink="http://www.w3.org/1999/xlink" x="0px" y="0px"
	 viewBox="0 0 282.5 282.4" style="enable-background:new 0 0 282.5 282.4;" xml:space="preserve">
<style type="text/css">
	.st0{fill:none;stroke:#12100B;stroke-width:2;stroke-miterlimit:10;}
</style>
<rect x="43.4" y="43.7" class="st0" width="196" height="196"/>
<rect x="43.4" y="43.7" transform="matrix(0.9808 -0.1951 0.1951 0.9808 -24.924 30.3086)" class="st0" width="196" height="196"/>
<rect x="43.4" y="43.7" transform="matrix(0.8315 -0.5556 0.5556 0.8315 -54.8834 102.4341)" class="st0" width="196" height="196"/>
<rect x="43.4" y="43.7" transform="matrix(0.5556 -0.8315 0.8315 0.5556 -54.9612 180.5363)" class="st0" width="196" height="196"/>
<rect x="43.4" y="43.7" transform="matrix(0.1951 -0.9808 0.9808 0.1951 -25.1448 252.7221)" class="st0" width="196" height="196"/>
<rect x="43.4" y="43.7" transform="matrix(0.9239 -0.3827 0.3827 0.9239 -43.4555 64.8962)" class="st0" width="196" height="196"/>
<rect x="43.4" y="43.7" transform="matrix(0.3827 -0.9239 0.9239 0.3827 -43.6072 218.0981)" class="st0" width="196" height="196"/>
<rect x="43.4" y="43.7" transform="matrix(0.7071 -0.7071 0.7071 0.7071 -58.7681 141.4816)" class="st0" width="196" height="196"/>
</svg>
